# xmcd
#
# Track frame offsets:
#	150
#	13012
#	23680
#	35268
#	46145
#	57148
#	68220
#	80818
#	91110
#	102551
#	113393
#	123657
#	141716
#	154244
#	164000
#	175532
#
# Disc length: 2460 seconds
#
# Revision: 0
# Processed by: cddbd v1.5.1PL2 Copyright (c) Steve Scherf et al.
# Submitted via: QuickRip XP 1.3 Using QuickRip XP for Submission
#
DISCID=d1099a10
DTITLE=Brook Benton - Brook Benton - I Got What I Wanted
DYEAR=2004
DGENRE=R&B
TTITLE0=I Got What I Wanted
TTITLE1=Thank You Pretty Baby
TTITLE2=Hotel Happiness
TTITLE3=Revenge
TTITLE4=It's Just a Matter of Time
TTITLE5=So Many Ways
TTITLE6=Think Twice
TTITLE7=Fools Rush In
TTITLE8=My True Confession
TTITLE9=Frankie and Johnnie
TTITLE10=The Same One
TTITLE11=Rainy Night in Georgia
TTITLE12=The Boll Weevil Song
TTITLE13=Lie to Me
TTITLE14=Kiddio
TTITLE15=Shadrack
EXTD=
EXTT0=
EXTT1=
EXTT2=
EXTT3=
EXTT4=
EXTT5=
EXTT6=
EXTT7=
EXTT8=
EXTT9=
EXTT10=
EXTT11=
EXTT12=
EXTT13=
EXTT14=
EXTT15=
PLAYORDER=
